<svg width="40" height="45" viewBox="0 0 40 45" fill="none" xmlns="http://www.w3.org/2000/svg">
<path d="M20 5C14.6957 5 9.60859 7.10714 5.85786 10.8579C2.10714 14.6086 0 19.6957 0 25C0 30.3043 2.10714 35.3914 5.85786 39.1421C9.60859 42.8929 14.6957 45 20 45C25.3043 45 30.3914 42.8929 34.1421 39.1421C37.8929 35.3914 40 30.3043 40 25C40 19.6957 37.8929 14.6086 34.1421 10.8579C30.3914 7.10714 25.3043 5 20 5V5ZM29.1725 33.845C29.0872 33.9849 28.9751 34.1066 28.8426 34.2031C28.7102 34.2996 28.56 34.369 28.4007 34.4074C28.2413 34.4457 28.076 34.4522 27.9141 34.4265C27.7523 34.4007 27.5971 34.3433 27.4575 34.2575C22.76 31.39 16.85 30.74 9.8875 32.3325C9.56493 32.4061 9.22634 32.3485 8.9462 32.1725C8.66607 31.9964 8.46735 31.7163 8.39375 31.3937C8.32015 31.0712 8.37771 30.7326 8.55376 30.4525C8.72981 30.1723 9.00993 29.9736 9.3325 29.9C16.9525 28.16 23.4875 28.9075 28.7575 32.13C29.0395 32.3028 29.2415 32.5803 29.3193 32.9018C29.397 33.2232 29.3443 33.5624 29.1725 33.845V33.845ZM31.62 28.4C31.4034 28.7523 31.0558 29.0042 30.6536 29.1003C30.2514 29.1964 29.8274 29.1288 29.475 28.9125C24.1 25.61 15.905 24.6525 9.545 26.5825C9.15789 26.6745 8.75026 26.6153 8.40527 26.4171C8.06028 26.2188 7.80392 25.8965 7.68847 25.5157C7.57303 25.1349 7.6072 24.7244 7.78402 24.368C7.96084 24.0115 8.26698 23.736 8.64 23.5975C15.9025 21.395 24.9325 22.4625 31.105 26.255C31.4577 26.4712 31.7101 26.8186 31.8067 27.2209C31.9033 27.6231 31.8361 28.0473 31.62 28.4V28.4ZM31.83 22.73C25.385 18.9 14.75 18.5475 8.595 20.415C8.12026 20.5589 7.60781 20.5083 7.17038 20.2743C6.73296 20.0404 6.40638 19.6422 6.2625 19.1675C6.11862 18.6928 6.16922 18.1803 6.40317 17.7429C6.63712 17.3055 7.03526 16.9789 7.51 16.835C14.5725 14.6925 26.3175 15.105 33.74 19.51C34.167 19.7633 34.4759 20.1758 34.5987 20.6568C34.7216 21.1379 34.6483 21.648 34.395 22.075C34.1417 22.502 33.7292 22.8109 33.2482 22.9337C32.7671 23.0566 32.257 22.9833 31.83 22.73V22.73Z" fill="#FF473E"/>
<path d="M35.6976 16.945C35.2288 17.1955 34.5186 16.9064 33.9506 16.1781C32.5015 14.32 30.9674 12.9782 29.631 12.3997C28.8257 12.0511 28.1078 10.9509 28.0275 9.94222C27.9472 8.9335 28.5349 8.39843 29.3402 8.74698C31.3069 9.59831 33.486 11.4723 35.476 14.0238C36.1669 14.9098 36.3857 16.1103 35.9645 16.7052C35.8915 16.8086 35.8016 16.8894 35.6976 16.945V16.945Z" fill="#FF8888"/>
<path d="M30.6304 10.9418C30.526 10.9659 30.417 10.9518 30.3214 10.9018L30.2564 10.8677C30.2564 10.8677 30.2102 10.8436 30.1288 10.7944C30.0494 10.744 29.9264 10.6745 29.7826 10.5771C29.7463 10.5529 29.7071 10.5282 29.6683 10.5006L29.6082 10.4594L29.5463 10.4261C29.4613 10.382 29.3761 10.3315 29.2841 10.2814C29.1893 10.2322 29.1072 10.1732 28.9984 10.1221C28.8927 10.0697 28.788 10.0116 28.6781 9.95484C28.6219 9.9283 28.5719 9.89227 28.5132 9.86847L28.3389 9.79213C28.2798 9.76732 28.2233 9.73914 28.1655 9.71196L28.079 9.67073C28.05 9.65714 28.018 9.64848 27.9876 9.63717C27.864 9.59512 27.7461 9.54523 27.6255 9.49917C27.5005 9.46257 27.3759 9.42459 27.2517 9.38525L27.1595 9.35607C27.1273 9.34877 27.0941 9.34284 27.0624 9.33463L26.8709 9.28857C26.8066 9.27407 26.7461 9.25492 26.68 9.24361L26.4816 9.20804L26.2859 9.17055L26.2372 9.16107L26.1852 9.15596L26.0827 9.14191L25.8793 9.11282C25.8114 9.10351 25.7471 9.08992 25.6735 9.08828C25.6028 9.08071 25.5322 9.07424 25.4625 9.06521C25.3934 9.05335 25.3239 9.04496 25.2561 9.02955C25.1166 9.00492 24.9699 8.98604 24.8312 8.94655C24.7604 8.93122 24.6927 8.90414 24.6217 8.88589C24.5493 8.86483 24.4766 8.84804 24.4051 8.82296C24.261 8.77918 24.1203 8.71981 23.978 8.66426C23.8322 8.60999 23.6875 8.5581 23.5448 8.50219C23.4021 8.44609 23.2624 8.38818 23.1195 8.34431C22.9283 8.28172 22.7376 8.21751 22.5474 8.15168C22.5007 8.20964 22.4529 8.26668 22.4041 8.32278C22.3202 8.41226 22.2629 8.50739 22.191 8.59184C22.1229 8.67749 22.0614 8.75848 21.9985 8.83217C21.9488 8.90172 21.8975 8.97011 21.8449 9.0373C21.8068 9.08771 21.7676 9.1373 21.7276 9.18606C21.686 9.29703 21.6427 9.40726 21.5976 9.51668C21.519 9.70585 21.4365 9.89314 21.3499 10.0784C21.3275 10.1284 21.3025 10.1776 21.2784 10.2276C21.2545 10.2794 21.2297 10.3307 21.2041 10.3816C21.0433 10.7069 20.8721 11.0265 20.691 11.3397C20.4408 11.7771 20.1737 12.2034 19.8903 12.6177C19.7499 12.821 19.6092 13.0175 19.4668 13.2019C19.3333 13.3786 19.1955 13.5517 19.0534 13.7209C18.7858 14.0404 18.5379 14.302 18.3529 14.4821C18.2624 14.5728 18.1808 14.6408 18.1305 14.6885C18.1052 14.7126 18.0827 14.7291 18.0689 14.7412L18.0477 14.7578L17.9794 14.8112C17.5783 15.1255 17.0107 15.0384 16.7119 14.6165C16.6483 14.5261 16.6001 14.4247 16.5695 14.3169L16.5372 14.2019C16.5202 14.1296 16.4875 14.0214 16.4607 13.8883C16.4265 13.7302 16.3975 13.5708 16.3737 13.4105C16.3432 13.2082 16.3196 13.0048 16.3029 12.8007C16.2847 12.579 16.2715 12.3401 16.269 12.09C16.2633 11.8388 16.2697 11.577 16.285 11.3073C16.3004 11.0379 16.327 10.7614 16.3632 10.4819C16.3994 10.2023 16.4473 9.92009 16.5059 9.63936C16.5646 9.35826 16.6325 9.07862 16.7149 8.80518C16.7458 8.70202 16.778 8.59978 16.8121 8.49836C16.7156 8.51578 16.6187 8.53338 16.5212 8.55071C16.205 8.61382 15.8845 8.68597 15.5612 8.76231C15.2374 8.84056 14.9124 8.92922 14.5865 9.01769C14.2627 9.11382 13.9375 9.20731 13.6173 9.30599C13.2997 9.40933 12.9807 9.50464 12.6772 9.61053C12.3696 9.70995 12.0766 9.81639 11.7925 9.91179L11.0025 10.195C10.8883 10.2399 10.7731 10.2821 10.657 10.3215C10.5468 10.3592 10.4571 10.3951 10.3624 10.4248C10.2714 10.4562 10.1877 10.4818 10.1076 10.518C10.0305 10.5512 9.96223 10.5771 9.90654 10.598C9.79569 10.6401 9.73246 10.659 9.73246 10.659C9.6436 10.6855 9.54996 10.6892 9.45946 10.6697C9.36896 10.6502 9.28427 10.608 9.21256 10.5468C9.14084 10.4855 9.08421 10.407 9.04746 10.3179C9.01071 10.2288 8.99492 10.1316 9.00143 10.0347C9.00143 10.0347 9.00611 9.96579 9.02242 9.84311C9.0304 9.78164 9.04063 9.70603 9.05573 9.61984C9.06431 9.57588 9.06726 9.53118 9.08305 9.47801L9.1298 9.31302C9.16198 9.19636 9.20596 9.06366 9.25384 8.92995C9.30542 8.78587 9.36134 8.64354 9.4215 8.50319C9.4934 8.34611 9.56947 8.19118 9.64962 8.03858C9.74227 7.87184 9.83978 7.70813 9.94202 7.54771C10.1619 7.21872 10.4223 6.8735 10.7339 6.54653C11.0414 6.21289 11.4014 5.90087 11.7964 5.60609C12.2078 5.30687 12.6443 5.04777 13.1005 4.83202C13.5712 4.61586 14.0699 4.43663 14.5849 4.30885C15.1022 4.18864 15.6327 4.1144 16.1613 4.09889C16.5313 4.0916 16.8986 4.11112 17.2571 4.15781C17.1928 4.03245 17.1209 3.91162 17.0417 3.79609C16.9943 3.72303 16.9355 3.64742 16.8799 3.56661C16.8153 3.49018 16.7545 3.41138 16.6842 3.32829C16.5489 3.16575 16.3937 2.9993 16.2416 2.83294L15.7791 2.34371C15.6369 2.19339 15.4959 2.04183 15.3561 1.88904C15.2283 1.74612 15.1172 1.6198 15.0243 1.50497C14.923 1.39497 14.8471 1.293 14.7939 1.23025C14.7673 1.19888 14.7479 1.17015 14.7345 1.15254L14.7143 1.12518L14.6712 1.06672C14.6193 0.996414 14.5847 0.91377 14.5705 0.826083C14.5562 0.738396 14.5627 0.648365 14.5894 0.56394C14.616 0.479516 14.6621 0.403297 14.7234 0.342015C14.7847 0.280732 14.8595 0.236273 14.941 0.212563C14.941 0.212563 14.9806 0.201071 15.0539 0.183376C15.1268 0.167415 15.2353 0.137591 15.3702 0.112509C15.5106 0.0906189 15.6869 0.0587877 15.8836 0.0420056L16.1991 0.0122721C16.3112 0.00415467 16.4275 0.00461071 16.5512 0.000871218C16.6745 -0.00168258 16.8047 0.00205691 16.9403 0.00342501C17.0761 0.00616123 17.2161 0.0223961 17.3625 0.0331585C17.6549 0.0683644 17.9684 0.115336 18.3005 0.20937C18.6319 0.298662 18.984 0.423981 19.3415 0.612597C19.7006 0.795832 20.0636 1.04163 20.409 1.34754C20.4945 1.42543 20.58 1.50487 20.6648 1.58614C20.7466 1.67105 20.8281 1.7577 20.9088 1.8459C20.9872 1.93583 21.0648 2.02776 21.1416 2.12098C21.2189 2.2141 21.2871 2.31206 21.359 2.40956C21.5249 2.64651 21.6738 2.89232 21.7996 3.14049C21.913 3.0221 22.0305 2.90673 22.156 2.80157C22.3636 2.61185 22.5906 2.45288 22.8202 2.29418C22.9374 2.22118 23.0557 2.14997 23.1749 2.08057C23.2935 2.00816 23.4172 1.95471 23.5393 1.89269C24.0305 1.66011 24.5394 1.49028 25.0406 1.39871C25.5416 1.30358 26.0357 1.26619 26.5038 1.29163C26.9724 1.31325 27.4166 1.38238 27.8246 1.49466C28.2333 1.60082 28.6057 1.75104 28.936 1.91348C29.2661 2.08167 29.5542 2.26034 29.7953 2.44932C29.9155 2.54381 30.0269 2.62782 30.1239 2.72331C30.2218 2.81479 30.3082 2.89341 30.3906 2.98343C30.4622 3.05722 30.531 3.13389 30.597 3.21327C30.6436 3.27931 30.682 3.33887 30.7129 3.38748C30.7444 3.43482 30.7668 3.4754 30.7825 3.50112L30.8061 3.5408C30.8545 3.62221 30.8834 3.71474 30.8904 3.81048C30.8974 3.90621 30.8822 4.00229 30.8462 4.09052C30.8102 4.17874 30.7544 4.25648 30.6835 4.31709C30.6127 4.3777 30.529 4.41937 30.4395 4.43855L30.3959 4.44794C30.3674 4.45369 30.3239 4.46463 30.2696 4.4733C30.2148 4.48324 30.1473 4.49501 30.0695 4.50504C29.9992 4.52483 29.9221 4.54462 29.8394 4.56542C29.7596 4.58804 29.6607 4.60938 29.5585 4.6341C29.5068 4.64732 29.4549 4.65836 29.4009 4.67012L29.2334 4.71181C29.006 4.76653 28.7564 4.8322 28.4969 4.89905C28.2362 4.97074 27.9647 5.04161 27.6888 5.12561C27.5511 5.16456 27.4126 5.20651 27.274 5.25011L27.3278 5.27948C27.5267 5.38081 27.7193 5.51625 27.9079 5.64385L28.1867 5.83575C28.2771 5.90352 28.3639 5.98086 28.4505 6.05237L28.7049 6.26917C28.7464 6.30537 28.7881 6.34012 28.8284 6.37697L28.9447 6.49426C29.0967 6.65205 29.2491 6.79807 29.383 6.95687C29.5074 7.11562 29.6304 7.2756 29.752 7.4368C29.7807 7.47602 29.8112 7.51277 29.8372 7.553L29.9138 7.67302C29.964 7.75256 30.0138 7.82944 30.0595 7.90779L30.1941 8.13572C30.2387 8.20914 30.2716 8.28803 30.3091 8.361C30.3807 8.50948 30.45 8.64839 30.5105 8.7832C30.5416 8.84886 30.5684 8.91836 30.5936 8.98631L30.6668 9.18141C30.7128 9.30718 30.7569 9.42192 30.792 9.53045L30.8184 9.60935L30.8364 9.68131L30.8689 9.81502C30.9114 9.98348 30.9385 10.1203 30.9597 10.2116L30.9893 10.3537C31.0157 10.4817 30.9928 10.6155 30.9255 10.7258C30.8582 10.8361 30.7521 10.9137 30.6304 10.9418V10.9418Z" fill="#25B954"/>
</svg>
